<svg xmlns="http://www.w3.org/2000/svg" xml:space="preserve" viewBox="0 0 240 240"><switch><g><radialGradient id="a" cx="118.98" cy="105.7" r="134.67" fx="77.02" fy="105.04" gradientUnits="userSpaceOnUse"><stop offset="0" stop-color="#feed83"/><stop offset=".16" stop-color="#feec7f"/><stop offset=".3" stop-color="#fee775"/><stop offset=".43" stop-color="#fee062"/><stop offset=".56" stop-color="#ffd649"/><stop offset=".62" stop-color="#ffd039"/><stop offset=".84" stop-color="#fb9013"/><stop offset=".95" stop-color="#fa7603"/></radialGradient><circle cx="120" cy="120" r="112.51" fill="url(#a)"/><radialGradient id="b" cx="55.15" cy="39.49" r="81.53" fx="55.05" fy="39.49" gradientUnits="userSpaceOnUse"><stop offset="0" stop-color="#b559ff"/><stop offset=".15" stop-color="#ab51f7"/><stop offset=".4" stop-color="#903be3"/><stop offset=".73" stop-color="#6517c3"/><stop offset=".85" stop-color="#5308b5"/><stop offset="1" stop-color="#440796"/></radialGradient><path fill="url(#b)" d="M110.2 35.5 93.6 64.3a3.2 3.2 0 0 0-.1 3L107 98.5a3.2 3.2 0 0 1-3.5 4.5l-32.3-7.3c-1-.2-2 .1-2.8.8l-27.2 22.6a3.2 3.2 0 0 1-5.4-2l-2.3-33a3.2 3.2 0 0 0-1.7-2.4L2.5 64.8a3.2 3.2 0 0 1 .3-5.7L34 45.6a3.2 3.2 0 0 0 1.8-2.3L42 9.5a3.2 3.2 0 0 1 5.5-1.6l23.1 25.4a3.2 3.2 0 0 0 2.8 1l33.6-3.5a3.2 3.2 0 0 1 3.2 4.8z"/><radialGradient id="c" cx="206.44" cy="39.49" r="81.53" fx="204.61" fy="38.71" gradientTransform="matrix(-1 0 0 1 391.3 0)" gradientUnits="userSpaceOnUse"><stop offset="0" stop-color="#b559ff"/><stop offset=".15" stop-color="#ab51f7"/><stop offset=".4" stop-color="#903be3"/><stop offset=".73" stop-color="#6517c3"/><stop offset=".85" stop-color="#5308b5"/><stop offset="1" stop-color="#440796"/></radialGradient><path fill="url(#c)" d="m129.8 35.5 16.6 28.8c.5 1 .6 2 .1 3L133 98.5a3.2 3.2 0 0 0 3.5 4.5l32.3-7.3c1-.2 2 .1 2.8.8l27.2 22.6a3.2 3.2 0 0 0 5.4-2l2.4-33a3.2 3.2 0 0 1 1.6-2.4L237.5 65a3.2 3.2 0 0 0-.2-5.8l-31.4-13.5a3.2 3.2 0 0 1-1.8-2.3L198 9.5a3.2 3.2 0 0 0-5.5-1.6l-23.1 25.4a3.2 3.2 0 0 1-2.8 1L133 30.9a3.2 3.2 0 0 0-3.2 4.8z"/><linearGradient id="d" x1="121.05" x2="119.85" y1="196.13" y2="132.9" gradientUnits="userSpaceOnUse"><stop offset=".06" stop-color="#721b19"/><stop offset=".27" stop-color="#6e1a18"/><stop offset=".47" stop-color="#621615"/><stop offset=".67" stop-color="#4e1111"/><stop offset=".87" stop-color="#32090b"/><stop offset="1" stop-color="#1c0206"/></linearGradient><path fill="url(#d)" d="M120 202.4c55.1-1.7 72.3-43.3 75.4-48.4 4-6.7 6.9-25.2-5.7-22.3-35.7 8-69.7 7.5-69.7 7.5s-34 .4-69.7-7.5c-12.6-2.8-9.8 15.6-5.7 22.3 3 5.1 20.3 46.7 75.4 48.4z"/><radialGradient id="e" cx="119.85" cy="187.39" r="38.71" fx="119.66" fy="201.6" gradientTransform="matrix(1 0 0 .3865 0 115)" gradientUnits="userSpaceOnUse"><stop offset=".12" stop-color="#e45f6d"/><stop offset=".58" stop-color="#c42b38"/><stop offset=".93" stop-color="#9f222c"/></radialGradient><path fill="url(#e)" d="M77 190.3a86.9 86.9 0 0 0 43 12c18-.5 32-5.3 42.8-11.7-2.5-4-13.6-18.2-42.7-18.2-28.6 0-40.3 13.7-43.2 18z"/><linearGradient id="f" x1="120.94" x2="120.04" y1="200.88" y2="153.61" gradientUnits="userSpaceOnUse"><stop offset="0" stop-color="#ffda4f"/><stop offset=".37" stop-color="#ffd547" stop-opacity=".6309"/><stop offset=".93" stop-color="#fdc732" stop-opacity=".0671"/><stop offset="1" stop-color="#fdc52f" stop-opacity="0"/></linearGradient><path fill="url(#f)" d="M141 199.6a85.8 85.8 0 0 1-42.1 0c-38.6-9.8-51.7-41.1-54.3-45.5l-.7-1.2c5.7 19.7 24 52.6 76 52.6s70.6-33.2 76.2-52.9l-.7 1.5c-2.7 4.4-15.7 35.7-54.4 45.5z"/></g></switch></svg>