<svg xmlns="http://www.w3.org/2000/svg" xml:space="preserve" viewBox="0 0 238.25 225.02"><switch><g><radialGradient id="a" cx="118.33" cy="98.21" r="134.67" fx="97.52" fy="97.32" gradientUnits="userSpaceOnUse"><stop offset="0" stop-color="#feed83"/><stop offset=".16" stop-color="#feec7f"/><stop offset=".3" stop-color="#fee775"/><stop offset=".43" stop-color="#fee062"/><stop offset=".56" stop-color="#ffd649"/><stop offset=".62" stop-color="#ffd039"/><stop offset=".84" stop-color="#fb9013"/><stop offset=".95" stop-color="#fa7603"/></radialGradient><circle cx="119.35" cy="112.51" r="112.51" fill="url(#a)"/><linearGradient id="b" x1="117.55" x2="119.59" y1="193.15" y2="84.55" gradientUnits="userSpaceOnUse"><stop offset=".06" stop-color="#721b19"/><stop offset=".27" stop-color="#6e1a18"/><stop offset=".47" stop-color="#621615"/><stop offset=".67" stop-color="#4e1111"/><stop offset=".87" stop-color="#32090b"/><stop offset="1" stop-color="#1c0206"/></linearGradient><path fill="url(#b)" d="M194.6 98.97c-15.14-16.34-73.94-16.34-75.28-16.34-1.35 0-60.15 0-75.29 16.34 0 0 2.04 96.2 75.26 96.26h.06c73.21-.06 75.25-96.26 75.25-96.26z"/><radialGradient id="c" cx="119.29" cy="176.52" r="36.87" gradientTransform="matrix(1 0 0 .4977 0 88.67)" gradientUnits="userSpaceOnUse"><stop offset=".12" stop-color="#e45f6d"/><stop offset=".58" stop-color="#c42b38"/><stop offset=".93" stop-color="#9f222c"/></radialGradient><path fill="url(#c)" d="M119.33 157.82c-26.24 0-41.78 10.09-48.86 16.3 11.04 12.28 26.66 21.09 48.8 21.1h.06c22.12-.01 37.74-8.81 48.77-21.08-7.04-6.21-22.51-16.32-48.77-16.32z"/><radialGradient id="d" cx="119.29" cy="101.41" r="66.47" gradientTransform="matrix(1 0 0 .619 0 38.64)" gradientUnits="userSpaceOnUse"><stop offset=".36" stop-color="#fefeff"/><stop offset=".5" stop-color="#fafbfd"/><stop offset=".64" stop-color="#eef1f8"/><stop offset=".79" stop-color="#dae1f0"/><stop offset=".93" stop-color="#becae4"/><stop offset="1" stop-color="#adbcdd"/></radialGradient><path fill="url(#d)" d="M169.33 119.82c15.95 3.32 17.79-16.23 17.71-26.23-21.4-10.96-66.6-10.96-67.79-10.96-1.17 0-46.29 0-67.72 10.93-.08 10 1.75 29.58 17.71 26.26 21.84-4.54 37.96-6.8 50.05-6.8 12.08 0 28.2 2.26 50.04 6.8z"/><radialGradient id="e" cx="119.29" cy="201.02" r="63.91" gradientUnits="userSpaceOnUse"><stop offset="0" stop-color="#ffda4f"/><stop offset=".37" stop-color="#ffd547" stop-opacity=".63"/><stop offset=".93" stop-color="#fdc732" stop-opacity=".07"/><stop offset="1" stop-color="#fdc52f" stop-opacity="0"/></radialGradient><path fill="url(#e)" d="M119.29 195.23h-.07c-42.38-.04-60.9-32.28-69-59.44 11.62 66.71 69.07 64.93 69.07 64.93s57.44 1.78 69.06-64.93l-.08.07c-8.1 27.14-26.64 59.33-68.98 59.37z"/><radialGradient id="f" cx="117.65" cy="123.57" r="41.26" fx="112.59" fy="123.55" gradientTransform="matrix(-.013 -.9999 2.4395 -.0318 -182.28 245.14)" gradientUnits="userSpaceOnUse"><stop offset=".64" stop-color="#fefeff" stop-opacity="0"/><stop offset=".7" stop-color="#ebe8e9" stop-opacity=".18"/><stop offset=".84" stop-color="#bbb0af" stop-opacity=".55"/><stop offset="1" stop-color="#786460"/></radialGradient><path fill="url(#f)" d="M119.25 82.63c-1.17 0-46.29 0-67.72 10.93-.03 4.15.27 9.96 1.77 15.1 13.05-5.07 34.59-10.7 66.02-10.7 31.92 0 53.25 5.8 65.88 10.94 1.56-5.19 1.88-11.1 1.84-15.3-21.4-10.97-66.6-10.97-67.79-10.97z"/><linearGradient id="g" x1="74.16" x2="73.6" y1="35.41" y2="55.68" gradientUnits="userSpaceOnUse"><stop offset="0" stop-color="#141427"/><stop offset=".9" stop-color="#1e243d"/><stop offset="1" stop-color="#1f2640"/></linearGradient><path fill="url(#g)" d="M64.92 41.1c3.98-3.03 9.22-3.72 14.34-3.08 4.09.51 9.81 3.1 12.07 4.28 3.83 2.16 8.67 5.14 11.16 9 2.94 4.24-1.56 10.86-6.64 11.19-4.56.45-8.54-1.62-12.62-3.8a46.11 46.11 0 0 1-3.29-1.93 13.12 13.12 0 0 0-14.35.09c-5.13 3.4-11.87 7.68-15.99 9.58-4.2 1.95-7.61-1.53-5.19-6.47 2.43-4.94 16.54-15.82 20.51-18.85z"/><linearGradient id="h" x1="368.34" x2="367.78" y1="35.41" y2="55.68" gradientTransform="matrix(-1 0 0 1 532.43 0)" gradientUnits="userSpaceOnUse"><stop offset="0" stop-color="#141427"/><stop offset=".9" stop-color="#1e243d"/><stop offset="1" stop-color="#1f2640"/></linearGradient><path fill="url(#h)" d="M173.33 41.1c-3.97-3.03-9.21-3.72-14.34-3.08-4.08.51-9.8 3.1-12.06 4.28-3.83 2.16-8.67 5.14-11.17 9-2.93 4.24 1.57 10.86 6.65 11.19 4.56.45 8.54-1.62 12.62-3.8a46.11 46.11 0 0 0 3.28-1.93 13.12 13.12 0 0 1 14.36.09c5.12 3.4 11.87 7.68 15.98 9.58 4.21 1.95 7.62-1.53 5.2-6.47-2.43-4.94-16.54-15.82-20.52-18.85z"/><radialGradient id="i" cx="160.73" cy="118" r="24.04" fx="156.15" fy="117.38" gradientTransform="matrix(-.4522 .8919 1.0573 .5361 161.29 -88.61)" gradientUnits="userSpaceOnUse"><stop offset="0" stop-color="#917a1b"/><stop offset=".29" stop-color="#947c1b" stop-opacity=".69"/><stop offset=".48" stop-color="#9c821c" stop-opacity=".49"/><stop offset=".64" stop-color="#ab8c1e" stop-opacity=".32"/><stop offset=".78" stop-color="#c09a21" stop-opacity=".17"/><stop offset=".91" stop-color="#dbab24" stop-opacity=".04"/><stop offset=".95" stop-color="#e3b125" stop-opacity="0"/></radialGradient><path fill="url(#i)" d="M210.77 142.6c-12.04-1.73-18.53-7.95-20.03-17.54 2.27-10.5 3-17.62 2.94-21.33 7.84 3.97 25.86 13.08 37.05 18.6-.4 5.9-1.24 11.66-2.51 17.28-5.2 3.24-10.21 4.02-17.45 2.98z"/><radialGradient id="j" cx="24.89" cy="118" r="24.04" fx="20.32" fy="117.38" gradientTransform="matrix(.4522 .8919 -1.0573 .5361 138.4 32.54)" gradientUnits="userSpaceOnUse"><stop offset="0" stop-color="#917a1b"/><stop offset=".29" stop-color="#947c1b" stop-opacity=".69"/><stop offset=".48" stop-color="#9c821c" stop-opacity=".49"/><stop offset=".64" stop-color="#ab8c1e" stop-opacity=".32"/><stop offset=".78" stop-color="#c09a21" stop-opacity=".17"/><stop offset=".91" stop-color="#dbab24" stop-opacity=".04"/><stop offset=".95" stop-color="#e3b125" stop-opacity="0"/></radialGradient><path fill="url(#j)" d="M27.5 142.6c12.02-1.73 18.52-7.95 20.02-17.54-2.28-10.5-3.01-17.62-2.94-21.33a4542.23 4542.23 0 0 1-37.05 18.6c.4 5.9 1.24 11.66 2.51 17.28 5.2 3.24 10.2 4.02 17.45 2.98z"/><linearGradient id="k" x1="32.21" x2="14.58" y1="128.65" y2="83.11" gradientTransform="rotate(31.41 25.82 105.63)" gradientUnits="userSpaceOnUse"><stop offset="0" stop-color="#3acdfe"/><stop offset=".34" stop-color="#29b7f3"/><stop offset="1" stop-color="#0082da"/></linearGradient><path fill="url(#k)" d="M10.2 130.25s16.34 9.98 28.23-5.89c10.98-14.66 9.54-43.32 8.82-51.9a1.86 1.86 0 0 0-2.56-1.57C36.73 74.18 10.58 86 2.55 102.45c-8.7 17.82 7.65 27.8 7.65 27.8z"/><linearGradient id="l" x1="20.8" x2="24.53" y1="80.16" y2="107.12" gradientTransform="rotate(31.41 25.82 105.63)" gradientUnits="userSpaceOnUse"><stop offset="0" stop-color="#b7daf3"/><stop offset=".21" stop-color="#a1d7f5" stop-opacity=".87"/><stop offset=".64" stop-color="#67d0fa" stop-opacity=".61"/><stop offset="1" stop-color="#34cafe" stop-opacity=".4"/></linearGradient><path fill="url(#l)" d="M22.79 105.3s7.4 4.51 12.78-2.67c4.8-6.41 4.85-18.43 4.7-22.66a1.12 1.12 0 0 0-1.52-1c-4.12 1.54-15.9 6.49-19.43 13.73-3.93 8.08 3.47 12.6 3.47 12.6z"/><linearGradient id="m" x1="148.13" x2="130.5" y1="57.85" y2="12.31" gradientTransform="scale(-1 1) rotate(31.41 -161.23 -559.52)" gradientUnits="userSpaceOnUse"><stop offset="0" stop-color="#3acdfe"/><stop offset=".34" stop-color="#29b7f3"/><stop offset="1" stop-color="#0082da"/></linearGradient><path fill="url(#m)" d="M228.06 130.25s-16.34 9.98-28.23-5.89c-10.98-14.66-9.54-43.32-8.83-51.9a1.86 1.86 0 0 1 2.56-1.57c7.97 3.29 34.12 15.1 42.15 31.56 8.7 17.82-7.65 27.8-7.65 27.8z"/><linearGradient id="n" x1="136.72" x2="140.45" y1="9.36" y2="36.32" gradientTransform="scale(-1 1) rotate(31.41 -161.23 -559.52)" gradientUnits="userSpaceOnUse"><stop offset="0" stop-color="#b7daf3"/><stop offset=".21" stop-color="#a1d7f5" stop-opacity=".87"/><stop offset=".64" stop-color="#67d0fa" stop-opacity=".61"/><stop offset="1" stop-color="#34cafe" stop-opacity=".4"/></linearGradient><path fill="url(#n)" d="M215.47 105.3s-7.4 4.51-12.78-2.67c-4.8-6.41-4.85-18.43-4.7-22.66a1.1 1.1 0 0 1 1.51-1c4.13 1.54 15.9 6.49 19.43 13.73 3.94 8.08-3.46 12.6-3.46 12.6z"/><g><radialGradient id="o" cx="119.29" cy="89.12" r="71.17" gradientTransform="matrix(1 0 0 .5643 0 38.83)" gradientUnits="userSpaceOnUse"><stop offset="0" stop-color="#ffcb28"/><stop offset="1" stop-color="#fdc52f" stop-opacity="0"/></radialGradient><path fill="url(#o)" d="M119.29 82.63c1.34 0 60.14 0 75.28 16.34 0 0 0 .52-.06 1.46h4.86s-13.78-22.61-80.08-22.61-80.09 22.6-80.09 22.6h4.86C44 99.5 44 98.98 44 98.98c15.14-16.34 73.94-16.34 75.29-16.34z"/></g></g></switch></svg>