<svg xmlns="http://www.w3.org/2000/svg" xml:space="preserve" id="Слой_1" x="0" y="0" enable-background="new 0 0 239.629 225.699" version="1.1" viewBox="0 0 239.63 225.7"><style>.st8{filter:url(#AI_Размытие_Гаусса_7)}</style><switch><g><filter id="AI_Размытие_Гаусса_7"><feGaussianBlur stdDeviation="9"/></filter><radialGradient id="PUTINXYILO" cx="119.82" cy="95.23" r="137.66" fx="2.84" fy="95.55" gradientTransform="matrix(.0014 1 -1.2079 .0017 234.68 -24.75)" gradientUnits="userSpaceOnUse"><stop offset="0" stop-color="#ff3d3b"/><stop offset=".44" stop-color="#ff3636"/><stop offset=".57" stop-color="#f33"/><stop offset=".68" stop-color="#e92729"/><stop offset=".85" stop-color="#c31118"/><stop offset=".97" stop-color="#86010c"/></radialGradient><path fill="url(#PUTINXYILO)" d="M177.18 0A62.37 62.37 0 0 0 120 37.45c-.06.06-.12.1-.18.1s-.12-.04-.18-.1A62.38 62.38 0 0 0 62.45 0C28.01 0 0 29.07 0 64.06c0 20 1.47 59.78 56.74 115.06 39.96 39.95 62.77 46.51 62.9 46.55l.17.03c.07 0 .12-.01.19-.03.12-.04 22.93-6.6 62.9-46.55 55.27-55.28 56.73-95.07 56.73-115.07C239.63 29.08 211.62 0 177.18 0z"/><g class="st8"><linearGradient id="IRPEN" x1="77.27" x2="68.08" y1="132.51" y2="50.3" gradientUnits="userSpaceOnUse"><stop offset="0" stop-color="#ff3837" stop-opacity="0"/><stop offset=".12" stop-color="#ff4340" stop-opacity=".12"/><stop offset=".47" stop-color="#ff5f58" stop-opacity=".47"/><stop offset=".77" stop-color="#ff7167" stop-opacity=".77"/><stop offset="1" stop-color="#ff776c"/></linearGradient><path fill="url(#IRPEN)" d="M41.9 26.38C16.93 40.8 9.74 75.09 25.84 102.98s49.4 38.81 74.37 24.4 32.16-48.71 16.05-76.6-49.4-38.82-74.36-24.4z"/></g><g class="st8"><linearGradient id="BUCHA" x1="172.97" x2="165.31" y1="132.22" y2="35.71" gradientUnits="userSpaceOnUse"><stop offset="0" stop-color="#ff3837" stop-opacity="0"/><stop offset=".12" stop-color="#ff4340" stop-opacity=".12"/><stop offset=".47" stop-color="#ff5f58" stop-opacity=".47"/><stop offset=".77" stop-color="#ff7167" stop-opacity=".77"/><stop offset="1" stop-color="#ff776c"/></linearGradient><path fill="url(#BUCHA)" d="M197.73 26.38c24.97 14.42 32.16 48.71 16.06 76.6s-49.4 38.81-74.37 24.4-32.16-48.71-16.05-76.6 49.4-38.82 74.36-24.4z"/></g></g></switch></svg>