<svg xmlns="http://www.w3.org/2000/svg" xml:space="preserve" viewBox="0 0 183.3 227.3"><switch><g><radialGradient id="a" cx="91.72" cy="113.63" r="118.07" fx="191.87" fy="112.24" gradientTransform="matrix(.0028 1 -.9275 .0026 196.9 21.6)" gradientUnits="userSpaceOnUse"><stop offset="0" stop-color="#ff932e"/><stop offset=".29" stop-color="#ff912d"/><stop offset=".45" stop-color="#ff882c"/><stop offset=".59" stop-color="#fe7a29"/><stop offset=".7" stop-color="#fe6724"/><stop offset=".8" stop-color="#fd4f1f"/><stop offset=".89" stop-color="#f83b18"/><stop offset="1" stop-color="#f01c0c"/></radialGradient><path fill="url(#a)" d="M53.8 76.7c18-17.3 25.6-53.1 25-74.3a2.3 2.3 0 0 1 3-2.3c8 2.4 29 16 44 42.7C143.6 74.7 145.7 89 145.7 89c4.2-.1 17-17.4 19.6-18.2 3.9-1 19 26.9 17.9 69.7C189.1 260-2 251.5.2 143.1c1.5-25.1 12.4-30.6 16.3-54.9s-1.7-32.8-1.8-37c-.2-13 41.4 24.2 39 25.5z"/><radialGradient id="b" cx="92.48" cy="142.64" r="82.94" fx="20.91" fy="143.74" gradientTransform="matrix(-.0081 -1 .9171 -.0074 -37.6 236.2)" gradientUnits="userSpaceOnUse"><stop offset="0" stop-color="#ffe762"/><stop offset=".44" stop-color="#ffe561" stop-opacity=".7343"/><stop offset=".6" stop-color="#ffde5d" stop-opacity=".6386"/><stop offset=".72" stop-color="#ffd356" stop-opacity=".5704"/><stop offset=".81" stop-color="#ffc24d" stop-opacity=".5152"/><stop offset=".89" stop-color="#ffac40" stop-opacity=".468"/><stop offset=".96" stop-color="#ff9131" stop-opacity=".4269"/><stop offset="1" stop-color="#ff7b25" stop-opacity=".4"/></radialGradient><path fill="url(#b)" d="M65.6 116.5C76 109 83.3 80.8 83 68.5a2.3 2.3 0 0 1 3.2-2.2 66.6 66.6 0 0 1 29 27.7c12.2 21.1 13.6 30.6 13.6 30.6 5-.5 11.5-11.6 13.5-12 2.1-.5 13 17.7 12.3 46 3.4 79.2-126.6 73.6-125.8 1.7 1-16.6 8.6-20.2 11.2-36.2 2.6-16-.8-20.3-1.2-24.5-.8-8.5 28.4 15.8 26.8 16.9z"/><linearGradient id="c" x1="91.64" x2="91.64" y1="203.81" y2="141.42" gradientUnits="userSpaceOnUse"><stop offset="0" stop-color="#ffffb2"/><stop offset=".98" stop-color="#ffffae" stop-opacity=".3168"/><stop offset="1" stop-color="#ffffae" stop-opacity=".3"/></linearGradient><path fill="url(#c)" d="M93 142.4a2 2 0 0 0-2.8 0c-4.8 4.8-20 21.6-19.5 40.6.7 22.7 21 21.2 21 21.2s20.2 1.5 20.9-21.1c.6-19.1-14.7-36-19.5-40.7z"/></g></switch></svg>