<svg xmlns="http://www.w3.org/2000/svg" xml:space="preserve" viewBox="0 0 256.69 258.09"><style>.st60{fill:#ff6458}.st61{fill:#133dac}.st62{fill:#1f58c3}.st63{fill:#46a0f1}.st64{fill:#68c4f8}.st65{fill:#307bde}</style><switch><g><linearGradient id="SVGID_1_" x1="1898.26" x2="1898.26" y1="-630.06" y2="-631.06" gradientUnits="userSpaceOnUse"><stop offset="0" stop-color="#656565"/><stop offset=".62" stop-color="#1b1b1b"/><stop offset=".63" stop-color="#545454"/><stop offset=".98" stop-color="#3e3e3e"/></linearGradient><radialGradient id="2496160606" cx="127.26" cy="124" r="142.41" fx="82.9" fy="123.3" gradientUnits="userSpaceOnUse"><stop offset="0" stop-color="#feed83"/><stop offset=".16" stop-color="#feec7f"/><stop offset=".3" stop-color="#fee775"/><stop offset=".43" stop-color="#fee062"/><stop offset=".56" stop-color="#ffd649"/><stop offset=".62" stop-color="#ffd039"/><stop offset=".84" stop-color="#fb9013"/><stop offset=".95" stop-color="#fa7603"/></radialGradient><circle cx="128.34" cy="139.12" r="118.98" fill="url(#2496160606)"/><linearGradient id="7032508518" x1="126.74" x2="129.04" y1="63.51" y2="237.38" gradientUnits="userSpaceOnUse"><stop offset=".36" stop-color="#fefeff"/><stop offset=".5" stop-color="#fafbfd"/><stop offset=".64" stop-color="#eef1f8"/><stop offset=".79" stop-color="#dae1f0"/><stop offset=".93" stop-color="#becae4"/><stop offset="1" stop-color="#adbcdd"/></linearGradient><path fill="url(#7032508518)" d="M221.22 135.05a32.57 32.57 0 0 0-13.95-8.04 4.9 4.9 0 0 1-3.03-6.95 36.52 36.52 0 0 0 3.86-21.54c-2.4-19.4-19.27-33.29-37.68-31-18.4 2.27-31.38 19.86-28.98 39.26a36.6 36.6 0 0 0 7.82 18.55h-41.43a36.22 36.22 0 0 0 7.26-26.81c-2.4-19.4-19.27-33.29-37.68-31-18.4 2.27-31.38 19.86-28.97 39.26a36.92 36.92 0 0 0 4.06 12.9 4.9 4.9 0 0 1-3.05 7.07c-4.96 1.34-10.38 3.81-14.87 8.3-11.6 11.6-3.88 37.95 9.45 55.9 11.32 15.23 34.47 43.9 83.87 42.89 49.4 1.02 72.55-27.66 83.87-42.9 13.33-17.94 21.06-44.28 9.45-55.89z"/><linearGradient id="2206499888" x1="128.42" x2="127.91" y1="217.23" y2="149.57" gradientUnits="userSpaceOnUse"><stop offset=".06" stop-color="#721b19"/><stop offset=".27" stop-color="#6e1a18"/><stop offset=".47" stop-color="#621615"/><stop offset=".67" stop-color="#4e1111"/><stop offset=".87" stop-color="#32090b"/><stop offset="1" stop-color="#1c0206"/></linearGradient><path fill="url(#2206499888)" d="M195.22 143.46c-17.79 4.5-67.32 7.4-67.32 7.4s-49.53-2.9-67.32-7.4c-13.3-3.38-15.4.47-15.4 4.53 0 7.34 4.98 67.21 82.72 69.93 77.75-2.72 82.72-62.6 82.72-69.93 0-4.06-2.1-7.9-15.4-4.53z"/><radialGradient id="8695725598" cx="127.9" cy="209.76" r="29.85" gradientTransform="matrix(1 0 0 .4507 0 115.23)" gradientUnits="userSpaceOnUse"><stop offset=".12" stop-color="#e45f6d"/><stop offset=".58" stop-color="#c42b38"/><stop offset=".93" stop-color="#9f222c"/></radialGradient><path fill="url(#8695725598)" d="M128.6 218.14c16.23-.57 29.29-3.63 39.79-8.18-5.69-9.14-21.75-15.73-40.68-15.73-18.52 0-34.29 6.3-40.3 15.11 10.74 4.9 24.23 8.2 41.2 8.8z"/><radialGradient id="2254906923" cx="127.9" cy="158.14" r="55.56" gradientUnits="userSpaceOnUse"><stop offset=".36" stop-color="#fefeff"/><stop offset=".5" stop-color="#fafbfd"/><stop offset=".64" stop-color="#eef1f8"/><stop offset=".79" stop-color="#dae1f0"/><stop offset=".93" stop-color="#becae4"/><stop offset="1" stop-color="#adbcdd"/></radialGradient><path fill="url(#2254906923)" d="M204.83 142.22c-2.27-.2-5.42.13-9.76 1.23-17.78 4.52-67.32 7.4-67.32 7.4s-49.53-2.89-67.31-7.4c-4.16-1.05-7.22-1.4-9.46-1.26.65 17.47 11.49 24.88 33.75 28.92 9.71 1.77 26.68 2.62 43.03 3.01h.28c16.36-.4 33.32-1.24 43.03-3 22.25-4.04 33.1-11.45 33.76-28.9z"/><radialGradient id="7532641671" cx="82.75" cy="108.24" r="14.37" gradientTransform="matrix(.0278 -.9996 1.2978 .036 -60.02 187.06)" gradientUnits="userSpaceOnUse"><stop offset="0" stop-color="#435dfc"/><stop offset=".12" stop-color="#4059f2"/><stop offset=".34" stop-color="#384dd6"/><stop offset=".62" stop-color="#2a3aa8"/><stop offset=".95" stop-color="#18206a"/><stop offset=".95" stop-color="#182069"/></radialGradient><path fill="url(#7532641671)" d="M99.98 106.71C99.98 92.9 91.93 81.7 82 81.7s-17.97 11.2-17.97 25.02 12.68 14.8 17.97 14.8c3.65 0 17.98-.99 17.98-14.8z"/><linearGradient id="6917067402" x1="79.24" x2="77.03" y1="101.49" y2="89.41" gradientUnits="userSpaceOnUse"><stop offset="0" stop-color="#fcfcfc" stop-opacity=".2"/><stop offset="1" stop-color="#fff" stop-opacity=".5"/></linearGradient><ellipse cx="78.2" cy="95.81" fill="url(#6917067402)" rx="6.08" ry="6.46"/><radialGradient id="5556317972" cx="174.55" cy="108.24" r="14.37" gradientTransform="matrix(.0278 -.9996 1.2978 .036 29.23 278.83)" gradientUnits="userSpaceOnUse"><stop offset="0" stop-color="#435dfc"/><stop offset=".12" stop-color="#4059f2"/><stop offset=".34" stop-color="#384dd6"/><stop offset=".62" stop-color="#2a3aa8"/><stop offset=".95" stop-color="#18206a"/><stop offset=".95" stop-color="#182069"/></radialGradient><path fill="url(#5556317972)" d="M191.78 106.71c0-13.82-8.05-25.02-17.98-25.02-9.92 0-17.97 11.2-17.97 25.02s12.68 14.81 17.97 14.81c3.65 0 17.98-.99 17.98-14.8z"/><linearGradient id="1113353763" x1="171.05" x2="168.83" y1="101.49" y2="89.41" gradientUnits="userSpaceOnUse"><stop offset="0" stop-color="#fcfcfc" stop-opacity=".2"/><stop offset="1" stop-color="#fff" stop-opacity=".5"/></linearGradient><ellipse cx="170" cy="95.81" fill="url(#1113353763)" rx="6.08" ry="6.46"/><path d="m52.14 142.28 4.39.31a23.78 23.78 0 0 0-4.4-.3z" class="st60"/><path d="m52.14 142.28-.2-.01.08.02h.12zm75.76 8.65c5.72-.35 50.08-3.15 66.7-7.37 1.75-.44 3.3-.75 4.67-.96-14.65 1.02-60.06 4.1-71.37 3.68-11.3.42-56.72-2.66-71.37-3.69 1.38.21 2.93.53 4.67.97 16.62 4.22 60.98 7.02 66.7 7.37zm71.37-8.33 4.4-.32c-1.23-.04-2.68.05-4.4.31z" class="st60"/><path d="m203.86 142.27-.2.01h.12l.08-.01zM127.9 218c-65.13-2.55-78.81-45.4-81.5-63.09.01.03 5.74 66.74 81.5 66.74s81.5-66.71 81.5-66.74c-2.69 17.7-16.37 60.54-81.5 63.09z" class="st60"/><path d="M9.41 84.11c-7.4-8.83-6.13-28.23-3.44-41 1.82-8.7.45-21.27-.62-28.38C3.95 10.16 2.6 6.46 1.92 4.7c-.13-.34.26-.62.56-.4 12.26 8.67 24.73 8.22 27.82 7.95.3-.03.42-.38.22-.61a14.1 14.1 0 0 1-2.11-3.66.36.36 0 0 1 .48-.46c11.45 4.7 29.3-.02 42.7 1.43 11.71 1.28 19.95 13.5 24.02 21.19 1.77-.53 3.56-1.01 5.36-1.45-6.04-10.4-21.33-25.54-38.39-22.9-17.59 2.71-30.42.52-35-.4-.98-.2-1.86.63-1.71 1.63l1.16 3.42c-9.68.59-19.58-5.07-24.2-7.52a1.44 1.44 0 0 0-2.06 1.7c3.99 13.15 3.37 33.4-.3 57.9-3.1 20.78 10.05 30.65 10.05 30.65s-5.71 19.37-2.83 30c2.06 7.6 5.27 6.59 7.15 5.12A112.93 112.93 0 0 1 24.8 91.4c-5.25.48-11.25-2.36-15.39-7.3z" class="st61"/><path d="M9.84 40.56c.44-7.72-2.1-18.05-4.49-25.83 1.06 7.11 2.44 19.68.61 28.38-2.68 12.77-3.95 32.17 3.45 41 4.14 4.93 10.14 7.78 15.39 7.3a113.4 113.4 0 0 1 8.07-14.53C18.21 75.97 8.73 59.87 9.84 40.56z" class="st62"/><path d="M17.2 35.13c-.52-2.7-1.03-5.25-1.61-7.43C13.58 20.24 5.2 8.57 2.4 4.79c-.14-.2.1-.44.3-.3 3.65 2.8 14.51 10.98 19.56 13.52 7.1 3.57 22.26 7.93 29.34 18.34 4.23 6.21 5.52 10.86 5.88 13.6a113.7 113.7 0 0 1 8.81-6.31v-.01c1.3-16.6-8.58-18.4-19.8-21.07-7.5-1.78-15.47-10.4-15.47-10.4 16.28 11.34 19.75 5.17 27.76 7.21C73.4 23.1 73.05 35 72.17 40.07c1.63-.91 3.29-1.8 4.97-2.64 3.2-6.27-1.82-15.11-7.39-18.83-5.87-3.91-13.02-3.06-26.13-4.08-10.36-.8-14.04-4.94-15.13-6.63-.15-.22.1-.48.33-.37 18.48 9 27.26-.6 42.63 3.42 14 3.68 19.61 14.65 21.56 20 .86-.29 1.73-.56 2.6-.81-4.07-7.69-12.31-19.91-24.03-21.18C58.2 7.49 40.34 12.2 28.9 7.5a.36.36 0 0 0-.48.46c.6 1.46 1.3 2.7 2.11 3.66.2.23.08.58-.22.6-3.08.28-15.56.73-27.82-7.95-.3-.2-.69.08-.56.41a167.9 167.9 0 0 1 3.43 10.04c-.5-3.31-.92-5.44-.92-5.44s6.1 11.63 12.78 25.84zm16.26 40.86c2.24-3.36 4.66-6.58 7.24-9.67a27.8 27.8 0 0 1-12.26-5.46c2.21 5.67 4 10.9 5.02 15.13z" class="st63"/><path d="M9.84 40.56c-1.1 19.3 8.37 35.4 23.03 36.32l.59-.9a125.66 125.66 0 0 0-5.02-15.12c-.7-.55-1.38-1.13-2.05-1.79-5.6-5.51-7.53-15.5-9.18-23.94C10.52 20.9 4.43 9.28 4.43 9.28s.43 2.14.92 5.45c2.4 7.79 4.93 18.1 4.49 25.83z" class="st63"/><path d="M22.26 18C17.21 15.48 6.35 7.29 2.7 4.5c-.2-.15-.44.09-.3.29C5.21 8.56 13.58 20.23 15.6 27.7a120.5 120.5 0 0 1 1.62 7.43c3.9 8.3 8 17.47 11.23 25.73a27.75 27.75 0 0 0 12.26 5.46 114.4 114.4 0 0 1 16.78-16.36c-.36-2.75-1.65-7.4-5.88-13.61-7.08-10.41-22.23-14.77-29.34-18.34z" class="st64"/><path d="M26.39 59.07c.67.66 1.36 1.24 2.05 1.79A429.87 429.87 0 0 0 17.2 35.13c1.65 8.43 3.57 18.43 9.18 23.94zm45.06-48.12C56.08 6.9 47.3 16.52 28.83 7.52c-.24-.11-.48.15-.34.37 1.09 1.7 4.77 5.82 15.13 6.63 13.11 1.02 20.26.17 26.13 4.08 5.57 3.72 10.6 12.56 7.4 18.83a112.95 112.95 0 0 1 15.87-6.5c-1.96-5.34-7.57-16.31-21.57-19.98z" class="st64"/><path d="M58.78 19.37c-8-2.04-11.48 4.13-27.76-7.21 0 0 7.98 8.61 15.48 10.4 11.21 2.67 21.1 4.48 19.8 21.07 1.91-1.24 3.87-2.42 5.87-3.55.88-5.1 1.24-16.98-13.39-20.71z" class="st65"/><radialGradient id="3653321701" cx="53.65" cy="55.2" r="61" fx="54.04" fy="108.91" gradientTransform="matrix(.7579 -.6524 .3824 .4442 -8.12 65.68)" gradientUnits="userSpaceOnUse"><stop offset=".38" stop-color="#133dac" stop-opacity=".6"/><stop offset=".63" stop-color="#1847b5" stop-opacity=".312"/><stop offset=".91" stop-color="#1f58c3" stop-opacity="0"/></radialGradient><path fill="url(#3653321701)" d="M100.86 28.6a55.02 55.02 0 0 0-13.28-15C67.1 6.53 34.26 10.79 18.95 29.68c-26.87 33.12-2.83 64.58 2.15 70.35a113.9 113.9 0 0 1 79.76-71.42z"/><path d="M247.28 83.7c7.4-8.83 6.12-28.23 3.44-41-1.83-8.7-.45-21.27.61-28.38a167.9 167.9 0 0 1 3.44-10.04c.13-.34-.27-.62-.56-.4-12.26 8.67-24.74 8.22-27.82 7.94-.3-.02-.42-.37-.22-.6.81-.96 1.5-2.2 2.1-3.66.13-.3-.17-.59-.47-.47-11.45 4.7-29.3-.01-42.7 1.44-11.71 1.28-19.95 13.5-24.02 21.18-1.77-.52-3.56-1-5.37-1.45 6.05-10.39 21.34-25.53 38.4-22.9 17.59 2.72 30.42.53 35-.4.98-.2 1.86.64 1.7 1.63l-1.15 3.43c9.68.58 19.57-5.08 24.2-7.52 1.14-.6 2.42.47 2.05 1.7-3.98 13.15-3.37 33.4.3 57.9 3.11 20.78-10.04 30.64-10.04 30.64s5.7 19.38 2.83 30c-2.06 7.6-5.27 6.6-7.16 5.13A112.94 112.94 0 0 0 231.9 91c5.24.47 11.25-2.37 15.39-7.3z" class="st61"/><path d="M246.85 40.15c-.44-7.72 2.1-18.05 4.48-25.83-1.06 7.11-2.44 19.68-.6 28.38 2.67 12.77 3.95 32.17-3.45 41-4.14 4.93-10.15 7.77-15.39 7.3a113.4 113.4 0 0 0-8.07-14.54c14.65-.9 24.13-17 23.03-36.31z" class="st62"/><path d="M239.48 34.71c.53-2.7 1.03-5.24 1.62-7.42 2-7.46 10.37-19.13 13.18-22.92.15-.2-.1-.43-.3-.29-3.64 2.79-14.5 10.97-19.56 13.52-7.1 3.57-22.25 7.92-29.34 18.34-4.23 6.2-5.51 10.86-5.87 13.6a113.7 113.7 0 0 0-8.81-6.32c-1.3-16.6 8.58-18.4 19.79-21.07 7.5-1.79 15.48-10.4 15.48-10.4-16.28 11.33-19.76 5.16-27.77 7.2-14.62 3.74-14.26 15.62-13.38 20.72-1.63-.93-3.3-1.8-4.97-2.65-3.2-6.28 1.82-15.12 7.39-18.83 5.87-3.91 13.02-3.06 26.12-4.08 10.36-.81 14.05-4.94 15.14-6.64.14-.22-.1-.47-.34-.36-18.47 9-27.25-.61-42.63 3.42-14 3.67-19.6 14.64-21.56 19.99-.86-.28-1.72-.55-2.59-.8 4.07-7.7 12.3-19.91 24.03-21.19 13.38-1.45 31.24 3.27 42.69-1.44.3-.12.6.17.48.47a13.6 13.6 0 0 1-2.11 3.66c-.2.22-.08.58.22.6 3.08.27 15.56.73 27.82-7.95.3-.2.69.07.56.41a167.9 167.9 0 0 0-3.44 10.04c.5-3.31.92-5.45.92-5.45s-6.08 11.63-12.77 25.84zm-16.25 40.86a113.96 113.96 0 0 0-7.24-9.66 27.8 27.8 0 0 0 12.26-5.46c-2.21 5.67-4 10.9-5.02 15.12z" class="st63"/><path d="M246.85 40.15c1.1 19.3-8.38 35.4-23.04 36.31l-.58-.89c1.02-4.22 2.8-9.45 5.02-15.12.69-.55 1.38-1.13 2.05-1.79 5.6-5.51 7.52-15.5 9.18-23.95 6.68-14.2 12.77-25.84 12.77-25.84s-.42 2.14-.92 5.45c-2.39 7.78-4.92 18.1-4.48 25.83z" class="st63"/><path d="M234.42 17.6c5.06-2.54 15.92-10.73 19.57-13.52.19-.14.44.1.3.3-2.82 3.78-11.18 15.45-13.19 22.9a116.9 116.9 0 0 0-1.62 7.44c-3.9 8.3-8.01 17.47-11.23 25.73a27.75 27.75 0 0 1-12.26 5.46 114.4 114.4 0 0 0-16.78-16.36c.36-2.75 1.64-7.4 5.87-13.61 7.09-10.41 22.24-14.77 29.34-18.34z" class="st64"/><path d="M230.3 58.66c-.67.66-1.36 1.24-2.05 1.79a429.87 429.87 0 0 1 11.23-25.74c-1.66 8.44-3.57 18.44-9.18 23.95zm-45.07-48.13c15.37-4.03 24.16 5.58 42.63-3.42.23-.11.48.14.34.36-1.1 1.7-4.78 5.83-15.14 6.64-13.1 1.02-20.25.17-26.13 4.08-5.57 3.72-10.59 12.55-7.39 18.83a112.95 112.95 0 0 0-15.87-6.5c1.95-5.34 7.57-16.32 21.56-19.99z" class="st64"/><path d="M197.9 18.96c8.01-2.04 11.49 4.12 27.77-7.21 0 0-7.98 8.61-15.48 10.4-11.22 2.67-21.1 4.48-19.8 21.07a113.43 113.43 0 0 0-5.87-3.55c-.88-5.1-1.24-16.98 13.38-20.71z" class="st65"/><radialGradient id="4695345123" cx="128.79" cy="52.31" r="111.83" gradientTransform="matrix(0 1 -1.6613 0 215.7 -76.49)" gradientUnits="userSpaceOnUse"><stop offset=".74" stop-color="#332b29"/><stop offset=".8" stop-color="#352e2c" stop-opacity=".7667"/><stop offset=".84" stop-color="#3e3634" stop-opacity=".6228"/><stop offset=".87" stop-color="#4b4443" stop-opacity=".5031"/><stop offset=".9" stop-color="#5f5857" stop-opacity=".3967"/><stop offset=".92" stop-color="#787372" stop-opacity=".2991"/><stop offset=".95" stop-color="#979392" stop-opacity=".2078"/><stop offset=".97" stop-color="#bcb9b9" stop-opacity=".1216"/><stop offset=".99" stop-color="#e6e5e5" stop-opacity=".0414"/><stop offset="1" stop-color="#fefeff" stop-opacity="0"/></radialGradient><path fill="url(#4695345123)" d="M204.83 141.95c-2.27-.2-5.42.14-9.76 1.24-17.78 4.5-67.32 7.4-67.32 7.4s-49.53-2.9-67.31-7.4c-4.16-1.06-7.22-1.4-9.46-1.27.65 17.47 11.49 24.89 33.75 28.93 9.71 1.76 26.68 2.6 43.03 3h.28c16.36-.4 33.32-1.24 43.03-3 22.25-4.04 33.1-11.45 33.76-28.9z"/><g><radialGradient id="8460891651" cx="3072.62" cy="54.79" r="61" fx="3073.01" fy="108.5" gradientTransform="matrix(-.7579 -.6524 -.3824 .4442 2552.72 2034.94)" gradientUnits="userSpaceOnUse"><stop offset=".38" stop-color="#133dac" stop-opacity=".6"/><stop offset=".63" stop-color="#1847b5" stop-opacity=".312"/><stop offset=".91" stop-color="#1f58c3" stop-opacity="0"/></radialGradient><path fill="url(#8460891651)" d="M155.83 28.18a55.02 55.02 0 0 1 13.28-14.99c20.48-7.08 53.31-2.82 68.63 16.07 26.87 33.12 2.83 64.58-2.15 70.35a113.91 113.91 0 0 0-79.76-71.43z"/></g><radialGradient id="0886919750" cx="127.9" cy="133.58" r="36.16" fx="127.9" fy="115.41" gradientTransform="matrix(1 0 0 .846 0 20.57)" gradientUnits="userSpaceOnUse"><stop offset=".25" stop-color="#ff7469"/><stop offset=".67" stop-color="#f52d2c"/><stop offset=".79" stop-color="#c21d1e"/><stop offset=".89" stop-color="#a01315"/><stop offset=".92" stop-color="#bc585a"/><stop offset=".96" stop-color="#e0b1b2"/><stop offset=".99" stop-color="#f6e9ea"/><stop offset="1" stop-color="#fff"/></radialGradient><ellipse cx="127.9" cy="133.58" fill="url(#0886919750)" rx="31.53" ry="28"/><linearGradient id="3437315801" x1="123.62" x2="119.92" y1="128.62" y2="113.05" gradientUnits="userSpaceOnUse"><stop offset="0" stop-color="#fcfcfc" stop-opacity="0"/><stop offset="1" stop-color="#fff" stop-opacity=".5"/></linearGradient><path fill="url(#3437315801)" d="M134.14 115.54c-1.76-4.53-8.77-6.04-15.66-3.37-6.9 2.67-11.06 8.51-9.3 13.05 1.76 4.53 8.77 6.04 15.66 3.37 6.9-2.67 11.06-8.51 9.3-13.05z"/><g><linearGradient id="7556483166" x1="233.44" x2="334.8" y1="189.95" y2="196.46" gradientTransform="matrix(1.0028 .1295 -.1305 1.0108 -124.92 -191.85)" gradientUnits="userSpaceOnUse"><stop offset="0" stop-color="#24282f"/><stop offset="0" stop-color="#24282f"/><stop offset=".09" stop-color="#3b4149"/><stop offset=".17" stop-color="#485059"/><stop offset=".24" stop-color="#4d555e"/><stop offset=".43" stop-color="#58606d"/><stop offset=".54" stop-color="#515865"/><stop offset=".71" stop-color="#3e444d"/><stop offset=".75" stop-color="#393e47"/><stop offset=".84" stop-color="#333740"/><stop offset=".97" stop-color="#21252c"/><stop offset="1" stop-color="#1c1f26"/></linearGradient><path fill="url(#7556483166)" d="M183.83 46.43c1.45-11.28-20.17-23.37-48.29-27S83.44 22 81.98 33.28s20.16 23.38 48.29 27 52.1-2.56 53.56-13.85z"/><linearGradient id="5954194818" x1="247.86" x2="317.46" y1="177.09" y2="182.21" gradientTransform="matrix(1.0028 .1295 -.1305 1.0108 -124.92 -191.85)" gradientUnits="userSpaceOnUse"><stop offset="0" stop-color="#24282f"/><stop offset="0" stop-color="#24282f"/><stop offset=".09" stop-color="#3b4149"/><stop offset=".17" stop-color="#485059"/><stop offset=".24" stop-color="#4d555e"/><stop offset=".43" stop-color="#58606d"/><stop offset=".54" stop-color="#515865"/><stop offset=".71" stop-color="#3e444d"/><stop offset=".75" stop-color="#393e47"/><stop offset=".84" stop-color="#333740"/><stop offset=".97" stop-color="#21252c"/><stop offset="1" stop-color="#1c1f26"/></linearGradient><path fill="url(#5954194818)" d="m169.24 31.41-2.5-17.17-30.36-1.35-29.7-6.4-6.78 15.97a8.39 8.39 0 0 0 1.92 9.41c4.54 4.22 13.65 10.07 30.53 12.24s27.19-1.16 32.64-4.08a8.39 8.39 0 0 0 4.25-8.62z"/><linearGradient id="0424054810" x1="282.09" x2="282.43" y1="175.49" y2="152" gradientTransform="matrix(1.0028 .1295 -.1305 1.0108 -124.92 -191.85)" gradientUnits="userSpaceOnUse"><stop offset=".16" stop-color="#58606d"/><stop offset=".36" stop-color="#515865"/><stop offset=".67" stop-color="#3e444d"/><stop offset=".75" stop-color="#393e47"/><stop offset=".84" stop-color="#333740"/><stop offset=".97" stop-color="#21252c"/><stop offset="1" stop-color="#1c1f26"/></linearGradient><linearGradient id="9199832186" x1="282.24" x2="282.24" y1="175.76" y2="155.17" gradientTransform="matrix(1.0028 .1295 -.1305 1.0108 -124.92 -191.85)" gradientUnits="userSpaceOnUse"><stop offset="0" stop-color="#858e9e"/><stop offset=".09" stop-color="#828b9a"/><stop offset=".18" stop-color="#78808f"/><stop offset=".27" stop-color="#676e7b"/><stop offset=".35" stop-color="#4f5661"/><stop offset=".42" stop-color="#393e47"/><stop offset=".6" stop-color="#333840"/><stop offset=".87" stop-color="#23262c"/><stop offset="1" stop-color="#191c20"/></linearGradient><path fill="url(#0424054810)" stroke="url(#9199832186)" stroke-miterlimit="10" stroke-width="1.0151" d="M166.93 15.87c.7-5.46-12.35-11.65-29.15-13.82s-30.99.5-31.7 5.96 12.35 11.66 29.15 13.83 31-.5 31.7-5.97z"/><radialGradient id="3192436829" cx="278.23" cy="204.9" r="36.85" gradientTransform="matrix(1.0028 .1295 -.0504 .3906 -141.32 -64.78)" gradientUnits="userSpaceOnUse"><stop offset="0" stop-color="#545c66"/><stop offset=".27" stop-color="#505862"/><stop offset=".57" stop-color="#454b55"/><stop offset=".77" stop-color="#393e47"/><stop offset="1" stop-color="#1c1f26"/></radialGradient><path fill="url(#3192436829)" d="M131.19 53.8c-25.37-3.28-45.43-13.43-48.06-23.67-.56 1-.93 2.06-1.07 3.16-1.46 11.29 20.16 23.38 48.29 27s52.1-2.56 53.56-13.85c.14-1.1.06-2.22-.23-3.33-5.14 9.23-27.13 13.96-52.5 10.69z"/><linearGradient id="4236138999" x1="231.69" x2="332.01" y1="194.05" y2="200.49" gradientTransform="matrix(1.0028 .1295 -.1305 1.0108 -124.92 -191.85)" gradientUnits="userSpaceOnUse"><stop offset="0" stop-color="#1c1f26"/><stop offset=".02" stop-color="#24282f"/><stop offset=".07" stop-color="#3a4149"/><stop offset=".12" stop-color="#485059"/><stop offset=".16" stop-color="#4d555e"/><stop offset=".18" stop-color="#535c65"/><stop offset=".27" stop-color="#6e7784"/><stop offset=".35" stop-color="#7f8897"/><stop offset=".41" stop-color="#858e9e"/><stop offset=".49" stop-color="#828b9a"/><stop offset=".57" stop-color="#78808f"/><stop offset=".64" stop-color="#676e7b"/><stop offset=".72" stop-color="#4f5661"/><stop offset=".77" stop-color="#393e47"/><stop offset=".84" stop-color="#333840"/><stop offset=".95" stop-color="#23262c"/><stop offset="1" stop-color="#191c20"/></linearGradient><path fill="none" stroke="url(#4236138999)" stroke-linecap="round" stroke-linejoin="round" stroke-miterlimit="10" stroke-width="1.0151" d="M83.32 30.65s4.63 16.84 47.87 23.14c39.81 5.8 50.92-8.26 52.05-9.84"/></g></g></switch></svg>