<svg xmlns="http://www.w3.org/2000/svg" xml:space="preserve" id="Слой_1" x="0" y="0" enable-background="new 0 0 213.06 217.29" version="1.1" viewBox="0 0 213.06 217.29"><style>.st3{filter:url(#AI_Размытие_Гаусса_4)}</style><switch><g><filter id="AI_Размытие_Гаусса_4">x=&quot;-100%&quot; y=&quot;-100%&quot; height=&quot;300%&quot; width=&quot;300%&quot;<feGaussianBlur stdDeviation="4"/></filter><linearGradient id="SVGID_1_" x1="1248.87" x2="1248.87" y1="566.93" y2="565.93" gradientUnits="userSpaceOnUse"><stop offset="0" stop-color="#656565"/><stop offset=".62" stop-color="#1b1b1b"/><stop offset=".63" stop-color="#545454"/><stop offset=".98" stop-color="#3e3e3e"/></linearGradient><linearGradient id="4184614154" x1="106.53" x2="106.53" y1="208.88" y2="6.71" gradientUnits="userSpaceOnUse"><stop offset="0" stop-color="#fc7500"/><stop offset=".46" stop-color="#ffb900"/><stop offset=".6" stop-color="#d0bc00"/><stop offset=".77" stop-color="#97bf00"/><stop offset="1" stop-color="#55c300"/></linearGradient><ellipse cx="106.53" cy="104.65" fill="url(#4184614154)" rx="106.53" ry="104.23"/><radialGradient id="6184188223" cx="56.61" cy="69.3" r="110.41" fx="56.84" fy="53.69" gradientTransform="matrix(.9649 0 0 .944 51.9 39.23)" gradientUnits="userSpaceOnUse"><stop offset=".01" stop-color="#ffff8f"/><stop offset=".22" stop-color="#f2ed76" stop-opacity=".7896"/><stop offset=".66" stop-color="#d0c136" stop-opacity=".3448"/><stop offset="1" stop-color="#b39b00" stop-opacity="0"/></radialGradient><ellipse cx="106.53" cy="104.65" fill="url(#6184188223)" rx="106.53" ry="104.23"/><linearGradient id="4248350817" x1="106.61" x2="106.38" y1="183.49" y2="127.7" gradientUnits="userSpaceOnUse"><stop offset=".06" stop-color="#721b19"/><stop offset=".27" stop-color="#6e1a18"/><stop offset=".47" stop-color="#621615"/><stop offset=".67" stop-color="#4e1111"/><stop offset=".87" stop-color="#32090b"/><stop offset="1" stop-color="#1c0206"/></linearGradient><path fill="url(#4248350817)" d="M106.47 185.15c23.28 0 35.7-4.34 39.92-11.75 4.21-7.4 2.63-23.74-4.6-33.44-8.08-10.85-31.98-10.22-35.32-10.22s-28.1-.38-35.31 10.22c-6.81 10-8.81 26.04-4.6 33.44 4.21 7.4 16.64 11.75 39.91 11.75z"/><radialGradient id="8137305890" cx="66.99" cy="50.85" r="35.67" fx="67.2" fy="45.87" gradientTransform="matrix(.9557 -.2942 .1304 .4237 -3.67 49.02)" gradientUnits="userSpaceOnUse"><stop offset="0" stop-color="#003700" stop-opacity=".7"/><stop offset=".14" stop-color="#043b02" stop-opacity=".6028"/><stop offset=".29" stop-color="#114708" stop-opacity=".5"/><stop offset=".44" stop-color="#265a12" stop-opacity=".3945"/><stop offset=".59" stop-color="#447621" stop-opacity=".2872"/><stop offset=".74" stop-color="#6a9a33" stop-opacity=".1785"/><stop offset=".9" stop-color="#98c44a" stop-opacity=".0701"/><stop offset="1" stop-color="#bae45a" stop-opacity="0"/></radialGradient><path fill="url(#8137305890)" d="M36.52 54.68s-3.58 20.07 20.6 20.55c21.98.44 36.67-8.04 35.34-34.74-18.1 9.92-36.68 15.16-55.93 14.2z"/><radialGradient id="6475145755" cx="2880.37" cy="50.85" r="35.67" fx="2880.58" fy="45.87" gradientTransform="matrix(-.9557 -.2942 -.1304 .4237 2905.72 876.71)" gradientUnits="userSpaceOnUse"><stop offset="0" stop-color="#003700" stop-opacity=".7"/><stop offset=".14" stop-color="#043b02" stop-opacity=".6028"/><stop offset=".29" stop-color="#114708" stop-opacity=".5"/><stop offset=".44" stop-color="#265a12" stop-opacity=".3945"/><stop offset=".59" stop-color="#447621" stop-opacity=".2872"/><stop offset=".74" stop-color="#6a9a33" stop-opacity=".1785"/><stop offset=".9" stop-color="#98c44a" stop-opacity=".0701"/><stop offset="1" stop-color="#bae45a" stop-opacity="0"/></radialGradient><path fill="url(#6475145755)" d="M176.65 54.68s3.58 20.07-20.58 20.55c-22 .44-36.69-8.04-35.35-34.74 18.1 9.92 36.68 15.16 55.93 14.2z"/><path fill="#459314" d="M41.67 50.91c40.08-1.4 41.42-19.79 48.06-15.89 2.83 1.66 3.79 9.4 2.28 12.06-8.8 15.52-54.05 17.18-55.47 7-.27-1.97 3.15-3.1 5.13-3.16zm129.73 0c-40.09-1.4-41.43-19.79-48.07-15.89-2.82 1.66-3.79 9.4-2.28 12.06 8.8 15.52 54.05 17.18 55.47 7 .27-1.97-3.15-3.1-5.12-3.16z"/><radialGradient id="1050090542" cx="107.15" cy="133.75" r="41.34" fx="106.53" fy="133.64" gradientTransform="matrix(1 0 0 .4948 0 67.57)" gradientUnits="userSpaceOnUse"><stop offset="0" stop-color="#ff7300"/><stop offset=".19" stop-color="#ff7b04" stop-opacity=".8094"/><stop offset=".48" stop-color="#fe9011" stop-opacity=".5174"/><stop offset=".84" stop-color="#fdb325" stop-opacity=".1624"/><stop offset="1" stop-color="#fdc52f" stop-opacity="0"/></radialGradient><path fill="url(#1050090542)" d="M106.36 129.71c3.34 0 27.24-.64 35.32 10.22a33.97 33.97 0 0 1 5.01 10.24h.01s0-23.99-40.34-23.99-40.11 24-40.11 24a38.5 38.5 0 0 1 4.8-10.25c7.2-10.6 31.97-10.22 35.31-10.22z"/><linearGradient id="2526017335" x1="30.82" x2="79.46" y1="87.61" y2="113.2" gradientUnits="userSpaceOnUse"><stop offset="0" stop-color="#181931"/><stop offset=".59" stop-color="#232947"/><stop offset="1" stop-color="#2c3559"/></linearGradient><path fill="url(#2526017335)" d="M42.82 70.42c15.43 3.82 33 11.5 37.97 14.13 4.97 2.63 11.71 6.3 14.04 10.3 2.33 3.99-.27 11.18-8.34 11.31-21.73.37-45.68 11.6-49.06 11.94-3.38.34-5.84.35-6.9-2.5-.94-2.53.47-5.23 2.6-6.71C43.3 101.8 69.64 94 69.64 94s-6.16-3.87-17.84-9.68c-8.26-4.11-17.72-7.01-16.97-11.1s5.56-3.24 7.99-2.81z"/><linearGradient id="7159245693" x1="-412.51" x2="-363.88" y1="87.61" y2="113.2" gradientTransform="matrix(-1 0 0 1 -230.39 0)" gradientUnits="userSpaceOnUse"><stop offset="0" stop-color="#181931"/><stop offset=".59" stop-color="#232947"/><stop offset="1" stop-color="#2c3559"/></linearGradient><path fill="url(#7159245693)" d="M170.13 70.42c-15.43 3.82-33 11.5-37.97 14.13-4.97 2.63-11.72 6.3-14.04 10.3s.26 11.18 8.34 11.31c21.73.37 45.67 11.6 49.05 11.94 3.38.34 5.85.35 6.9-2.5.94-2.53-.46-5.23-2.6-6.71-10.16-7.08-36.5-14.88-36.5-14.88s6.16-3.87 17.84-9.68c8.26-4.11 17.72-7.01 16.96-11.1-.75-4.1-5.55-3.24-7.98-2.81z"/><radialGradient id="4673229647" cx="106.53" cy="176.26" r="54.46" gradientUnits="userSpaceOnUse"><stop offset=".01" stop-color="#90d239"/><stop offset=".54" stop-color="#62ad25"/><stop offset=".67" stop-color="#5ea924"/><stop offset=".8" stop-color="#539d20"/><stop offset=".93" stop-color="#408919"/><stop offset="1" stop-color="#327b14"/></radialGradient><path fill="url(#4673229647)" d="M170.64 194.26c-1.4-1.91-3.72-2.36-5.8-2.37a111.7 111.7 0 0 1-14.14 7.26 3.7 3.7 0 0 1-5.05-2.56s-4.52-45.71-10.67-52.61c-10.98-12.32-45.7-10.93-56.43-.2-6.53 6.54-11.13 52.8-11.13 52.8a3.7 3.7 0 0 1-5.06 2.57 111.3 111.3 0 0 1-14.13-7.25c-2.08 0-4.42.45-5.8 2.37-2.75 3.78-.18 8.97 7.55 11.4 6.08 1.92 9.43 4.82 19.25 8.32 8.17 2.91 24.46 3.3 37.3 3.3s29.13-.39 37.3-3.3c9.82-3.5 13.17-6.4 19.25-8.32 7.74-2.44 10.3-7.62 7.56-11.4z"/><linearGradient id="7639810097" x1="67.4" x2="93.74" y1="167.78" y2="172.71" gradientUnits="userSpaceOnUse"><stop offset=".25" stop-color="#367f16"/><stop offset=".31" stop-color="#3b8317" stop-opacity=".753"/><stop offset=".39" stop-color="#49901c" stop-opacity=".4708"/><stop offset=".47" stop-color="#5fa423" stop-opacity=".1723"/><stop offset=".52" stop-color="#70b328" stop-opacity="0"/></linearGradient><path fill="url(#7639810097)" d="M78.52 143.78c-6.54 6.53-11.14 52.8-11.14 52.8-.07.33-.2.62-.35.9-.31.83-1.84 2.1-3.7 1.95-1.44-.11-15.14-7.52-15.14-7.52.46 4.28 5.37 5.87 9.4 7.69.74.34 5.38 2.14 6.95 2.32 1.58.17 6.15 1.25 10.25-2.15 6.6-5.49 5.52-25.93 6.72-40.43.74-8.94 4.78-17.9 9.15-21.89-5.08 1.46-9.4 3.58-12.14 6.33z"/><linearGradient id="2578531975" x1="149.14" x2="122.21" y1="166.53" y2="173.18" gradientUnits="userSpaceOnUse"><stop offset=".31" stop-color="#367f16"/><stop offset=".4" stop-color="#3c8418" stop-opacity=".7608"/><stop offset=".5" stop-color="#4b921d" stop-opacity=".4548"/><stop offset=".62" stop-color="#66aa25" stop-opacity=".1139"/><stop offset=".66" stop-color="#70b328" stop-opacity="0"/></linearGradient><path fill="url(#2578531975)" d="M147 198.69a3.67 3.67 0 0 1-1.38-2.1s-4.52-45.72-10.67-52.62c-2.87-3.22-7.37-5.5-12.63-6.92 2.16 3.22 7.31 11.72 9.23 21.97 2.68 14.3-1.4 33.52 6.26 40.98 1.42 1.39.83 3.44 12.05 2.44 2.66-.54 5.16-1.68 7.07-2.66s2.39-4.76 1.94-4.5c-1.7 1-8.26 3.98-8.86 4.12-.54.12-2 .2-3-.71z"/><g class="st3"><radialGradient id="7852294318" cx="105.33" cy="195.94" r="77.45" fx="102.65" fy="254.81" gradientTransform="matrix(.9998 .0197 -.0034 .1748 .7 159.62)" gradientUnits="userSpaceOnUse"><stop offset=".08" stop-color="#e5f45e"/><stop offset=".93" stop-color="#8cd139"/></radialGradient><path fill="url(#7852294318)" d="M164.98 196.48s-9.53 4.68-16.97 6.25c-11.58 2.42-10.9-43.54-10.9-43.54l-6.47 3.32.38 27.65-32.9.47-.33-18.76H76.7s.97 35.18-11.55 31.7c-7.33-2.04-17.17-7.09-17.17-7.09l-1.88 2.17s13.32 8.81 26.94 11.7 33.45 1.82 33.45 1.82 19.82 1.08 33.44-1.82 26.94-11.7 26.94-11.7l-1.88-2.17z"/></g><g class="st3"><radialGradient id="5496372212" cx="105.88" cy="161.84" r="55.35" fx="106.21" fy="148.43" gradientTransform="matrix(.9992 -.0391 .0242 .6199 -3.84 65.65)" gradientUnits="userSpaceOnUse"><stop offset=".08" stop-color="#e5f45e"/><stop offset=".21" stop-color="#dff25a" stop-opacity=".8965"/><stop offset=".38" stop-color="#d0ec4f" stop-opacity=".7642"/><stop offset=".57" stop-color="#b5e33d" stop-opacity=".6167"/><stop offset=".59" stop-color="#b2e23b" stop-opacity=".6"/><stop offset=".94" stop-color="#a1db3e" stop-opacity=".4"/></radialGradient><path fill="url(#5496372212)" d="M106.4 144s-21.01-3.4-25.78 6.13c-4.76 9.53.86 41.02-4.25 44.6s-9.2 10.37-14.3 8 21.2 7.48 33.5 6.29c12.29-1.2 7.01-32.17 7.01-32.17 11.8-3.3 24.03-3.2 36.64 0 0 0-3.58-26.04-7.5-30.46-3.9-4.43-25.32-2.4-25.32-2.4z"/></g><g class="st3"><linearGradient id="3728015185" x1="87.37" x2="147.89" y1="184.08" y2="184.41" gradientUnits="userSpaceOnUse"><stop offset=".25" stop-color="#8bd038"/><stop offset=".39" stop-color="#8dd138"/><stop offset=".47" stop-color="#95d43a"/><stop offset=".54" stop-color="#a3da3d"/><stop offset=".55" stop-color="#a5db3d"/><stop offset=".71" stop-color="#a5db3d" stop-opacity="0"/></linearGradient><path fill="url(#3728015185)" d="M101.73 170.9h22.76v26.64h-22.76z"/></g><g class="st3"><linearGradient id="3484663519" x1="116.42" x2="162.89" y1="184.1" y2="184.3" gradientUnits="userSpaceOnUse"><stop offset=".1" stop-color="#8bd038"/><stop offset=".2" stop-color="#83c733" stop-opacity=".7351"/><stop offset=".49" stop-color="#70b328" stop-opacity="0"/></linearGradient><path fill="url(#3484663519)" d="M122.29 170.9h18.6v26.52h-18.6z"/></g><g class="st3"><radialGradient id="9570042279" cx="284.26" cy="3.8" r="46.86" fx="284.49" fy="-32.68" gradientTransform="matrix(1.1208 .0154 -.0119 .4225 -212.43 158.84)" gradientUnits="userSpaceOnUse"><stop offset=".01" stop-color="#e5f45e"/><stop offset=".35" stop-color="#e5f45e"/><stop offset=".95" stop-color="#b2e23b" stop-opacity=".3"/></radialGradient><path fill="url(#9570042279)" d="m100.2 193.9.47-24.63c9.3 0 28.9-.39 37.4 1.06 0-6.32-1.82-17.33-7.94-21.7-5.93-4.25-23.4-4.77-23.4-4.77s-15.99-.3-23.5 4.76c-9.7 6.54-7.53 39.2-8.36 44.96.35.04 25.33.32 25.33.32z"/></g><linearGradient id="4660025571" x1="106.43" x2="106.31" y1="152.62" y2="123.36" gradientUnits="userSpaceOnUse"><stop offset=".07" stop-color="#721b19" stop-opacity="0"/><stop offset=".26" stop-color="#6f1a18" stop-opacity=".2392"/><stop offset=".42" stop-color="#641716" stop-opacity=".4474"/><stop offset=".57" stop-color="#521212" stop-opacity=".6441"/><stop offset=".72" stop-color="#390a0c" stop-opacity=".8325"/><stop offset=".86" stop-color="#1c0206"/></linearGradient><path fill="url(#4660025571)" d="M141.74 139.96c-8.08-10.85-31.98-10.22-35.32-10.22s-28.1-.38-35.32 10.22c-5.16 7.59-7.55 18.65-6.57 26.78 1.18-.93 11.57-15.37 41.92-14.7 28.71.64 41.79 14.57 41.91 14.7 1.1-8.2-1.12-19.4-6.62-26.78z"/></g></switch></svg>