<svg xmlns="http://www.w3.org/2000/svg" xml:space="preserve" id="Слой_1" x="0" y="0" version="1.1" viewBox="0 0 223.9 224.4"><style>.st13{fill:#fff}.st14{fill:#1a1626}</style><switch><g><linearGradient id="SVGID_1_" x1="-748" x2="-748" y1="-376.13" y2="-377.13" gradientUnits="userSpaceOnUse"><stop offset="0" stop-color="#656565"/><stop offset=".62" stop-color="#1b1b1b"/><stop offset=".63" stop-color="#545454"/><stop offset=".98" stop-color="#3e3e3e"/></linearGradient><radialGradient id="2989798408" cx="118.77" cy="170.45" r="126.63" fx="30.45" fy="98.81" gradientTransform="matrix(1 0 0 .5555 0 75.8)" gradientUnits="userSpaceOnUse"><stop offset="0" stop-color="#d17c59"/><stop offset=".19" stop-color="#cd7957"/><stop offset=".41" stop-color="#bf7050"/><stop offset=".62" stop-color="#aa6244"/><stop offset=".77" stop-color="#97553a"/><stop offset=".91" stop-color="#8a4f36"/></radialGradient><path fill="url(#2989798408)" d="M108.2 123.3C48.1 123.2 0 121 0 174c0 38.9 50.1 50.5 112 50.5s112-10.8 112-50.5c0-53.3-50.2-50.6-112-50.6"/><radialGradient id="7435932976" cx="110.19" cy="123.32" r="1.9" fx="108.87" fy="122.25" gradientTransform="matrix(1 0 0 .5555 0 54.8)" gradientUnits="userSpaceOnUse"><stop offset="0" stop-color="#d17c59"/><stop offset=".19" stop-color="#cd7957"/><stop offset=".41" stop-color="#bf7050"/><stop offset=".62" stop-color="#aa6244"/><stop offset=".77" stop-color="#97553a"/><stop offset=".91" stop-color="#8a4f36"/></radialGradient><path fill="url(#7435932976)" d="M112 123.3h-3.8"/><radialGradient id="9925604449" cx="111.96" cy="113.98" r="94.01" fx="36.93" fy="57.34" gradientTransform="matrix(1 0 0 .6158 0 43.8)" gradientUnits="userSpaceOnUse"><stop offset="0" stop-color="#d17c59"/><stop offset=".29" stop-color="#ce7a58"/><stop offset=".49" stop-color="#c57453"/><stop offset=".66" stop-color="#b66a4b"/><stop offset=".81" stop-color="#a15c3f"/><stop offset=".87" stop-color="#97553a"/><stop offset=".95" stop-color="#78442f"/></radialGradient><path fill="url(#9925604449)" d="M108.5 63.5C59 64.5 19.2 86.7 19.2 114c0 27.9 41.5 50.5 92.8 50.5s92.8-22.6 92.8-50.5-41.6-50.6-92.8-50.6"/><radialGradient id="2317435639" cx="110.24" cy="63.45" r="1.54" fx="109.01" fy="62.52" gradientTransform="matrix(1 0 0 .6158 0 24.4)" gradientUnits="userSpaceOnUse"><stop offset="0" stop-color="#d17c59"/><stop offset=".29" stop-color="#ce7a58"/><stop offset=".49" stop-color="#c57453"/><stop offset=".66" stop-color="#b66a4b"/><stop offset=".81" stop-color="#a15c3f"/><stop offset=".87" stop-color="#97553a"/><stop offset=".95" stop-color="#78442f"/></radialGradient><path fill="url(#2317435639)" d="M112 63.4h-3.5"/><radialGradient id="4499831382" cx="110.6" cy="50.6" r="59.74" fx="77.1" fy="72.41" gradientTransform="matrix(-.0857 .9963 -1.3673 -.1176 189.3 -53.6)" gradientUnits="userSpaceOnUse"><stop offset="0" stop-color="#d17c59"/><stop offset=".33" stop-color="#cf7a58"/><stop offset=".49" stop-color="#c77554"/><stop offset=".62" stop-color="#ba6c4d"/><stop offset=".73" stop-color="#a76043"/><stop offset=".79" stop-color="#97553a"/><stop offset=".94" stop-color="#78452f"/></radialGradient><path fill="url(#4499831382)" d="M88 .1c2.5-.6 5.5 1.5 5 4-.8 3.7-1.8 8.7-1.8 13.4a13.7 13.7 0 0 0 8 12.5c19 8.3 60.4-6.4 72 21.7 7 18.1-1.2 36.5-29 44.7s-51.4 5.8-69.5-6C49 75.2 44 47.2 50 32.6A55.3 55.3 0 0 1 88 .1z"/><circle cx="70.35" cy="123.67" r="26.57" class="st13"/><circle cx="73.11" cy="122.92" r="15.66" class="st14"/><circle cx="78.55" cy="115.26" r="4.6" class="st13"/><circle cx="153.57" cy="123.67" r="26.57" class="st13"/><circle cx="150.82" cy="122.92" r="15.66" class="st14"/><circle cx="145.38" cy="115.26" r="4.6" class="st13"/><path d="M159.4 167.3c-6.6-5.3-47.4-5.8-47.4-5.8s-40.9.5-47.4 5.8c-6.6 5.2-3 21.4 6.6 31.2s21.1 15.4 40.8 15.4c19.6 0 31.1-5.6 40.7-15.4s13.2-26 6.7-31.2z" class="st14"/><radialGradient id="0783350323" cx="111.96" cy="176.43" r="42.83" gradientUnits="userSpaceOnUse"><stop offset="0" stop-color="#fff"/><stop offset=".45" stop-color="#fdfdfe"/><stop offset=".68" stop-color="#f5f7fa"/><stop offset=".85" stop-color="#e8ecf4"/><stop offset=".99" stop-color="#d6ddeb"/></radialGradient><path fill="url(#0783350323)" d="M154.7 176.8c-1.7-9.2-42.7-8.1-42.7-8.1s-41.1-1.1-42.7 8.1c-.3 1.8-.1 3.8.7 5.2 1.3 2.4 7 2.2 9.6 2.2h64.7c2.7 0 8.3.2 9.6-2.2a8.4 8.4 0 0 0 .8-5.2z"/><path fill="#fd7383" d="M121.8 196c-6.6 0-9.8 1.6-9.8 1.6s-3.3-1.6-9.8-1.6c-5.3 0-13.8 2.8-13.8 5.9 0 3.1 15.3 6.6 23.6 6.6s23.5-3.4 23.5-6.6c0-3.1-8.4-5.9-13.7-5.9z"/></g></switch></svg>